gait_subject_b_1ms
version=1
nRows=40
nColumns=17
InDegrees=yes
endheader
time	ankle_angle_l	ankle_angle_r	hip_adduction_l	hip_adduction_r	hip_flexion_l	hip_flexion_r	hip_rotation_l	hip_rotation_r	knee_angle_l	knee_angle_r	lumbar_bending	lumbar_extemsion	lumbar_rotation
8.22000000	-4.83112215	-7.73191435	-4.31929478	-4.07356489	22.34679163	5.07644628	5.49207101	0.46245644	-20.23002444	-50.60884244	-5.19948165	2.17370558	1.11656595	0.00000000	0.00000000	0.00000000
8.22200000	-4.71256863	-8.25353099	-4.41002426	-4.17518042	22.19156121	5.40946862	5.52161082	0.38447222	-20.21470669	-51.20120175	-5.25332344	2.16526040	1.06733355	0.00000000	0.00000000	0.00000000
8.22400000	-4.59333516	-8.76762203	-4.49913789	-4.27286886	22.03685099	5.74681874	5.55325164	0.31047741	-20.19540331	-51.78763452	-5.30570334	2.16039108	1.01933175	0.00000000	0.00000000	0.00000000
8.22600000	-4.47344067	-9.27325354	-4.58628671	-4.36647989	21.88298729	6.08815916	5.58697511	0.24023220	-20.17254322	-52.36762495	-5.35637355	2.15906253	0.97263469	0.00000000	0.00000000	0.00000000
8.22800000	-4.35294141	-9.76933611	-4.67118449	-4.45581192	21.72991302	6.43332352	5.62277658	0.17346624	-20.14674886	-52.94062293	-5.40509128	2.16122235	0.92730708	0.00000000	0.00000000	0.00000000
8.23000000	-4.23185908	-10.25465234	-4.75351356	-4.54080069	21.57817743	6.78182766	5.66063518	0.10992598	-20.11831300	-53.50631463	-5.45162929	2.16681533	0.88340083	0.00000000	0.00000000	0.00000000
8.23200000	-4.11025592	-10.72782362	-4.83303687	-4.62104647	21.42792013	7.13355043	5.70053756	0.04925464	-20.08772444	-54.06424992	-5.49575887	2.17577419	0.84095332	0.00000000	0.00000000	0.00000000
8.23400000	-3.98817883	-11.18731978	-4.90888552	-4.69684741	21.27949405	7.48813491	5.74266049	-0.00870865	-20.05533537	-54.61417031	-5.53727207	2.18801611	0.79999780	0.00000000	0.00000000	0.00000000
8.23600000	-3.86573030	-11.63149529	-4.98141073	-4.76776612	21.13288713	7.84542811	5.78683513	-0.06434808	-20.02165546	-55.15575834	-5.57598705	2.20345301	0.76054153	0.00000000	0.00000000	0.00000000
8.23800000	-3.74301649	-12.05859638	-5.05069671	-4.83362272	20.98810751	8.20507486	5.83298186	-0.11797608	-19.98714686	-55.68885278	-5.61173973	2.22197958	0.72258011	0.00000000	0.00000000	0.00000000
8.24000000	-3.62013285	-12.46673134	-5.11564599	-4.89462187	20.84515561	8.56705161	5.88137739	-0.16977713	-19.95223708	-56.21315293	-5.64435973	2.24348094	0.68610464	0.00000000	0.00000000	0.00000000
8.24200000	-3.49717218	-12.85399093	-5.17654803	-4.95062229	20.70450891	8.93087876	5.93186013	-0.22005014	-19.91705599	-56.72863576	-5.67373281	2.26784584	0.65107751	0.00000000	0.00000000	0.00000000
8.24400000	-3.37423762	-13.21842386	-5.23339420	-5.00145806	20.56652272	9.29610236	5.98436635	-0.26909194	-19.88174863	-57.23527988	-5.69975277	2.29494886	0.61744745	0.00000000	0.00000000	0.00000000
8.24600000	-3.25149145	-13.55800080	-5.28583103	-5.04712032	20.43070597	9.66296923	6.03897925	-0.31712726	-19.84684861	-57.73269104	-5.72232626	2.32465065	0.58515598	0.00000000	0.00000000	0.00000000
8.24800000	-3.12906210	-13.87078500	-5.33397623	-5.08732220	20.29721198	10.03104779	6.09560563	-0.36446866	-19.81249495	-58.22084068	-5.74138945	2.35680633	0.55412045	0.00000000	0.00000000	0.00000000
8.25000000	-3.00708405	-14.15486217	-5.37774015	-5.12226843	20.16609462	10.40005080	6.15421552	-0.41126629	-19.77881841	-58.69962166	-5.75691437	2.39126538	0.52425093	0.00000000	0.00000000	0.00000000
8.25200000	-2.88565911	-14.40845115	-5.41658869	-5.15314011	20.03777923	10.76872553	6.21487921	-0.45738249	-19.74569210	-59.16944872	-5.76892365	2.42784934	0.49545288	0.00000000	0.00000000	0.00000000
8.25400000	-2.76498539	-14.62980436	-5.45121081	-5.17836950	19.91157556	11.13828540	6.27736869	-0.50344361	-19.71351490	-59.62936571	-5.77738165	2.46642579	0.46759430	0.00000000	0.00000000	0.00000000
8.25600000	-2.64521039	-14.81738339	-5.48158107	-5.19805321	19.78731092	11.50854001	6.34162428	-0.54958985	-19.68234928	-60.07918239	-5.78232221	2.50682510	0.44054736	0.00000000	0.00000000	0.00000000
8.25800000	-2.52646381	-14.96987434	-5.50768380	-5.21222018	19.66500268	11.87896574	6.40756210	-0.59597409	-19.65209720	-60.51888119	-5.78379861	2.54886823	0.41417145	0.00000000	0.00000000	0.00000000
8.26000000	-2.40890396	-15.08612339	-5.52979861	-5.22089872	19.54424625	12.24970992	6.47503033	-0.64272620	-19.62282215	-60.94807824	-5.78189288	2.59238467	0.38831935	0.00000000	0.00000000	0.00000000
8.26200000	-2.29264752	-15.16527052	-5.54814433	-5.22411574	19.42510695	12.62036743	6.54385835	-0.68997445	-19.59428768	-61.36668928	-5.77670513	2.63719631	0.36283339	0.00000000	0.00000000	0.00000000
8.26400000	-2.17782298	-15.20669295	-5.56288927	-5.22208589	19.30733787	12.99073835	6.61389404	-0.73777759	-19.56636960	-61.77452145	-5.76835806	2.68311927	0.33755368	0.00000000	0.00000000	0.00000000
8.26600000	-2.06455999	-15.21002474	-5.57382498	-5.21497476	19.19041915	13.36090257	6.68508356	-0.78619353	-19.53904229	-62.17123038	-5.75697373	2.72996495	0.31231848	0.00000000	0.00000000	0.00000000
8.26800000	-1.95295138	-15.17524527	-5.58143274	-5.20294879	19.07437766	13.73031045	6.75715574	-0.83528704	-19.51195461	-62.55683011	-5.74271547	2.77754417	0.28695747	0.00000000	0.00000000	0.00000000
8.27000000	-1.84308583	-15.10259395	-5.58594999	-5.18630143	18.95905081	14.09872457	6.82990256	-0.88507466	-19.48482271	-62.93117609	-5.72575593	2.82566814	0.26130248	0.00000000	0.00000000	0.00000000
8.27200000	-1.73504343	-14.99261859	-5.58742723	-5.16518749	18.84414484	14.46582140	6.90315903	-0.93560985	-19.45740598	-63.29417951	-5.70626508	2.87413736	0.23518548	0.00000000	0.00000000	0.00000000
8.27400000	-1.62889821	-14.84614275	-5.58617671	-5.13994223	18.72931244	14.83131505	6.97668983	-0.98689283	-19.42947131	-63.64575249	-5.68443946	2.92275286	0.20844196	0.00000000	0.00000000	0.00000000
8.27600000	-1.52470081	-14.66426851	-5.58237529	-5.11081529	18.61428223	15.19496446	7.05028342	-1.03894714	-19.40073385	-63.98580063	-5.66047491	2.97131588	0.18091053	0.00000000	0.00000000	0.00000000
8.27800000	-1.42248392	-14.44839736	-5.57652109	-5.07771852	18.49889226	15.55632691	7.12363911	-1.09189778	-19.37084514	-64.31435831	-5.63456901	3.01962488	0.15242933	0.00000000	0.00000000	0.00000000
8.28000000	-1.32227653	-14.20013354	-5.56864948	-5.04102555	18.38268290	15.91518266	7.19658409	-1.14573401	-19.33961083	-64.63136449	-5.60692633	3.06747239	0.12285155	0.00000000	0.00000000	0.00000000
8.28200000	-1.22406561	-13.92135348	-5.55878477	-5.00091755	18.26556643	16.27089630	7.26892840	-1.20051018	-19.30664816	-64.93701042	-5.57774565	3.11464642	0.09203418	0.00000000	0.00000000	0.00000000
8.28400000	-1.12784171	-13.61408508	-5.54721805	-4.95787258	18.14725162	16.62320558	7.34043259	-1.25619628	-19.27168951	-65.23131767	-5.54724842	3.16094304	0.05984750	0.00000000	0.00000000	0.00000000
8.28600000	-1.03361667	-13.28045464	-5.53429079	-4.91162486	18.02691185	16.97313503	7.41087489	-1.31294558	-19.23476496	-65.51361806	-5.51561799	3.20618554	0.02616971	0.00000000	0.00000000	0.00000000
8.28800000	-0.94130765	-12.92285925	-5.51963731	-4.86359116	17.90475227	17.31932266	7.48016013	-1.37050029	-19.19538174	-65.78459919	-5.48309402	3.25014361	-0.00909944	0.00000000	0.00000000	0.00000000
8.29000000	-0.85087296	-12.54370848	-5.50345331	-4.81431979	17.78032214	17.66206325	7.54809984	-1.42881873	-19.15341623	-66.04405052	-5.44988584	3.29262852	-0.04605227	0.00000000	0.00000000	0.00000000
8.29200000	-0.76223034	-12.14567086	-5.48631048	-4.76300686	17.65368540	18.00051821	7.61439854	-1.48824946	-19.10850698	-66.29237395	-5.41614876	3.33343416	-0.08478992	0.00000000	0.00000000	0.00000000
8.29400000	-0.67531382	-11.73129544	-5.46831182	-4.71041994	17.52444682	18.33483921	7.67891085	-1.54870227	-19.06056033	-66.52946182	-5.38208520	3.37237455	-0.12537677	0.00000000	0.00000000	0.00000000
8.29600000	-0.59005827	-11.30322779	-5.44941032	-4.65655781	17.39205879	18.66482085	7.74153994	-1.61029993	-19.00959801	-66.75538263	-5.34784552	3.40925025	-0.16787228	0.00000000	0.00000000	0.00000000
8.29800000	-0.50636324	-10.86405578	-5.42877378	-4.60220206	17.25626357	18.99035478	7.80236402	-1.67296194	-18.95552876	-66.97015719	-5.31358032	3.44387210	-0.21231178	0.00000000	0.00000000	0.00000000
